<svg xmlns="http://www.w3.org/2000/svg" viewBox="0 0 373 373"><defs><style>.cls-1{fill:#ededed;}</style></defs><g id="图层_2" data-name="图层 2"><g id="图层_1-2" data-name="图层 1"><path class="cls-1" d="M289,0H84A84,84,0,0,0,0,84V289a84,84,0,0,0,84,84H289a84,84,0,0,0,84-84V84A84,84,0,0,0,289,0Zm-9.80054,302.86444c-19.36474,13.304-47.31653,11.11774-63.30414-5.58789-8.80078-9.19611-22.94958-20.75281-46.34112-50.36328-18.91992-23.94995-27.61731-38.1391-25.817-53.50348a41.08578,41.08578,0,0,1,5.32984-15.6344c6.91986-11.1925,17.96283-15.38544,22.00348-16.69891a56.64075,56.64075,0,0,1,18.35162-1.53253,46.82588,46.82588,0,0,1,21.58691,6.42645c3.29944,2.01056,8.95118,5.38635,12.63123,11.89331,3.98041,7.038,4.78973,15.84607,2.3374,26.15234-3.04089,12.78009-9.1933,24.15668-16.53839,34.945-1.82214,2.67639-3.272,3.33716-5.45953.215-2.86139-4.084-6.00531-7.98608-9.24-11.78564-1.58966-1.86719-1.58441-3.17773-.127-5.14038,4.46149-6.00806,8.66486-12.20477,11.69941-19.09772,5.897-13.395,1.90795-21.74029-12.38636-25.20007-8.56482-2.073-16.88983-1.204-24.3778,3.9162-5.63648,3.85412-7.24921,8.49505-5.55457,15.1593,1.50208,5.907,4.51013,11.08588,7.97229,15.97052,17.86633,25.20715,38.49237,48.08581,60.13184,70.033,9.43036,9.56445,24.781,10.062,35.79181,2.27405,11.458-8.10431,15.49914-22.05042,9.50506-34.859-25.693-54.9021-52.48523-109.27057-79.66785-163.44867-2.494-4.97095-5.99719-7.86237-11.60778-7.85553-5.66571.0069-9.21009,3.14831-11.59223,8.00757Q149.967,137.24807,125.38593,187.336q-14.33826,29.31042-28.49616,58.70892c-3.00726,6.20612-5.37671,12.56439-4.19238,19.66541,3.16192,18.95855,20.2727,29.045,39.37164,23.18292,12.001-3.68353,21.89844-10.30457,28.90424-20.9115,1.64947-2.49731,3.41571-4.92328,4.95392-7.48663,1.38183-2.30268,2.51062-2.79492,4.21258-.25031,2.95923,4.42432,6.0639,8.75257,9.16522,13.07977.97522,1.36078,1.35944,2.531.13068,3.99317-14.35162,17.07825-30.62781,31.40387-53.94458,33.7865-29.37952,3.0022-53.6582-20.04694-53.41986-51.39026-.60425-7.03082,1.88946-14.726,5.5036-22.14874q36.85729-75.697,73.765-151.36939a72.27461,72.27461,0,0,1,6.29255-10.73468c11.181-15.41308,35.40594-18.64374,50.34875-6.84222a41.75033,41.75033,0,0,1,12.17023,14.85779c25.3554,52.66613,51.02179,105.18273,76.32629,157.87323C306.74683,262.733,299.01373,289.25171,279.19946,302.86444Z"/></g></g></svg>