<svg xmlns="http://www.w3.org/2000/svg" viewBox="0 0 373 373"><defs><style>.cls-1{fill:#111;}</style></defs><g id="图层_2" data-name="图层 2"><g id="图层_1-2" data-name="图层 1"><path class="cls-1" d="M289,0H84A84,84,0,0,0,0,84V289a84,84,0,0,0,84,84H289a84,84,0,0,0,84-84V84A83.99993,83.99993,0,0,0,289,0Zm-9.80054,294.15955c-19.36474,13.30395-47.3164,11.11773-63.30407-5.588-8.80079-9.196-22.94959-20.75274-46.34119-50.36322-18.91992-23.95-27.61731-38.1391-25.8169-53.50347a41.08336,41.08336,0,0,1,5.32984-15.6344c6.91992-11.19251,17.96289-15.38544,22.00342-16.69892a56.64091,56.64091,0,0,1,18.35156-1.53253A46.82532,46.82532,0,0,1,211.009,157.2655c3.29956,2.01056,8.9513,5.38636,12.63135,11.89331,3.98047,7.038,4.7898,15.84607,2.3374,26.15235-3.041,12.78-9.19336,24.15667-16.53833,34.94494-1.82226,2.67633-3.27209,3.3371-5.45959.215-2.86145-4.084-6.00537-7.98615-9.24011-11.78565-1.5896-1.86724-1.58435-3.17773-.127-5.14038,4.46167-6.00811,8.66492-12.20477,11.69947-19.09771,5.897-13.395,1.90795-21.7403-12.38636-25.20008-8.56482-2.073-16.88977-1.204-24.3778,3.9162-5.63648,3.85413-7.24927,8.49506-5.55445,15.1593,1.502,5.907,4.51,11.08588,7.97217,15.97052,17.86633,25.2071,38.49243,48.08576,60.13184,70.033,9.43042,9.56452,24.781,10.062,35.79187,2.274,11.458-8.10425,15.49914-22.05041,9.505-34.85895-25.69311-54.9021-52.48523-109.27057-79.66772-163.44867-2.49414-4.97094-5.99732-7.86236-11.60791-7.85553-5.66565.0069-9.21,3.14832-11.59217,8.00757Q149.967,128.54319,125.386,178.6311,111.04773,207.94154,96.88977,237.34c-3.0072,6.206-5.37659,12.56433-4.19226,19.6654,3.16187,18.95856,20.27258,29.04505,39.37158,23.18286,12.001-3.68347,21.89844-10.3045,28.90418-20.91143,1.64953-2.49738,3.41565-4.92328,4.954-7.4867,1.38183-2.30267,2.51049-2.79486,4.21252-.25024,2.95923,4.42431,6.06384,8.75256,9.16516,13.07971.97534,1.36078,1.3595,2.531.13086,3.99322-14.35181,17.07825-30.62793,31.40387-53.94458,33.7865-29.37964,3.00214-53.6582-20.047-53.41992-51.39032-.60425-7.03082,1.8894-14.726,5.50354-22.14874q36.85747-75.6969,73.765-151.36932a72.26975,72.26975,0,0,1,6.29261-10.73468c11.181-15.41309,35.40588-18.64374,50.34875-6.84223a41.751,41.751,0,0,1,12.17017,14.85779C245.50684,127.438,271.1731,179.95459,296.47766,232.645,306.74683,254.02808,299.01367,280.54675,279.19946,294.15955Z"/></g></g></svg>